# xmcd
#
# Track frame offsets:
#	150
#	22595
#	58615
#	81332
#	100755
#	134082
#	162862
#	193375
#
# Disc length: 3316 seconds
#
# Revision: 1
# Processed by: cddbd v1.5.2PL0 Copyright (c) Steve Scherf et al.
# Submitted via: EZCDAudioConverter 2.1.7.1
#
DISCID=660cf208
DTITLE=V/A - Real World Notes V05
DYEAR=1900
DGENRE=
TTITLE0=Maryam Mursal - Kufilaw
TTITLE1=Nusrat Fateh Ali Khan and Party - Allah Hoo Allah Hoo
TTITLE2=Iarla Ó Lionáird - Aoibhinn Cronan
TTITLE3=Paban Das Baul - Paramey Param
TTITLE4=Nusrat Fateh Ali Khan and Michael Brook - Shadow
TTITLE5=Thomas Mapfumo and The Blacks Unlimited - Wenhamo
TTITLE6=Peter Gabriel and Nusrat Fateh Ali Khan - Taboo
TTITLE7=Various Artist - Ecd Track08
EXTD=
EXTT0=
EXTT1=
EXTT2=
EXTT3=
EXTT4=
EXTT5=
EXTT6=
EXTT7=
PLAYORDER=
